<svg width="487" height="73" viewBox="0 0 487 73" fill="none" xmlns="http://www.w3.org/2000/svg">
<rect width="228" height="67" rx="33.5" fill="#EA2626"/>
<path d="M81.304 34.7244H77.7528C77.7055 34.3598 77.6084 34.0308 77.4616 33.7372C77.3149 33.4437 77.1207 33.1927 76.8793 32.9844C76.6378 32.776 76.3513 32.6174 76.0199 32.5085C75.6932 32.3949 75.331 32.3381 74.9332 32.3381C74.2277 32.3381 73.6193 32.5109 73.108 32.8565C72.6013 33.2022 72.2107 33.7017 71.9361 34.3551C71.6662 35.0085 71.5312 35.7992 71.5312 36.7273C71.5312 37.6932 71.6686 38.5028 71.9432 39.1562C72.2225 39.8049 72.6132 40.295 73.1151 40.6264C73.6217 40.9531 74.2206 41.1165 74.9119 41.1165C75.3002 41.1165 75.6529 41.0668 75.9702 40.9673C76.2921 40.8679 76.5739 40.7235 76.8153 40.5341C77.0616 40.34 77.2628 40.1056 77.419 39.831C77.58 39.5516 77.6913 39.2367 77.7528 38.8864L81.304 38.9077C81.2424 39.5516 81.0554 40.1861 80.7429 40.8111C80.4351 41.4361 80.0114 42.0066 79.4716 42.5227C78.9318 43.0341 78.2737 43.4413 77.4972 43.7443C76.7254 44.0473 75.84 44.1989 74.8409 44.1989C73.5246 44.1989 72.3456 43.91 71.304 43.3324C70.267 42.75 69.4479 41.9025 68.8466 40.7898C68.2453 39.6771 67.9446 38.3229 67.9446 36.7273C67.9446 35.1269 68.25 33.7704 68.8608 32.6577C69.4716 31.545 70.2978 30.6998 71.3395 30.1222C72.3812 29.5445 73.5483 29.2557 74.8409 29.2557C75.7216 29.2557 76.536 29.3788 77.2841 29.625C78.0322 29.8665 78.6903 30.2216 79.2585 30.6903C79.8267 31.1544 80.2884 31.7249 80.6435 32.402C80.9986 33.0791 81.2188 33.8532 81.304 34.7244ZM86.391 44.1847C85.695 44.1847 85.0771 44.0687 84.5373 43.8366C84.0022 43.5999 83.5785 43.2448 83.266 42.7713C82.9582 42.2931 82.8043 41.6941 82.8043 40.9744C82.8043 40.3684 82.9109 39.857 83.1239 39.4403C83.337 39.0237 83.6306 38.6851 84.0046 38.4247C84.3787 38.1643 84.8095 37.9678 85.2972 37.8352C85.7849 37.6979 86.3058 37.6056 86.8597 37.5582C87.48 37.5014 87.9795 37.4422 88.3583 37.3807C88.7371 37.3144 89.0117 37.2221 89.1822 37.1037C89.3574 36.9806 89.445 36.8078 89.445 36.5852V36.5497C89.445 36.1851 89.3195 35.9034 89.0685 35.7045C88.8176 35.5057 88.479 35.4062 88.0529 35.4062C87.5936 35.4062 87.2243 35.5057 86.945 35.7045C86.6656 35.9034 86.488 36.178 86.4123 36.5284L83.2092 36.4148C83.3039 35.7519 83.5477 35.16 83.9407 34.6392C84.3384 34.1136 84.8829 33.7017 85.5742 33.4034C86.2702 33.1004 87.1059 32.9489 88.0813 32.9489C88.7773 32.9489 89.4189 33.0317 90.006 33.1974C90.5932 33.3584 91.1045 33.5952 91.5401 33.9077C91.9757 34.2154 92.3119 34.5942 92.5487 35.044C92.7901 35.4938 92.9109 36.0076 92.9109 36.5852V44H89.6438V42.4801H89.5586C89.3645 42.8494 89.1159 43.1619 88.8129 43.4176C88.5146 43.6733 88.1618 43.8651 87.7546 43.9929C87.3522 44.1207 86.8976 44.1847 86.391 44.1847ZM87.4634 41.9119C87.8375 41.9119 88.1737 41.8362 88.4719 41.6847C88.775 41.5331 89.0165 41.3248 89.1964 41.0597C89.3763 40.7898 89.4663 40.4773 89.4663 40.1222V39.0852C89.3668 39.1373 89.2461 39.1847 89.104 39.2273C88.9667 39.2699 88.8152 39.3101 88.6495 39.348C88.4838 39.3859 88.3133 39.419 88.1381 39.4474C87.9629 39.4759 87.7949 39.5019 87.6339 39.5256C87.3072 39.5777 87.0278 39.6581 86.7958 39.767C86.5685 39.8759 86.3933 40.018 86.2702 40.1932C86.1519 40.3636 86.0927 40.5672 86.0927 40.804C86.0927 41.1638 86.2205 41.4384 86.4762 41.6278C86.7366 41.8172 87.0657 41.9119 87.4634 41.9119ZM95.0344 44V33.0909H98.408V35.0795H98.5217C98.7205 34.3598 99.0449 33.8248 99.4947 33.4744C99.9445 33.1193 100.468 32.9418 101.064 32.9418C101.225 32.9418 101.391 32.9536 101.561 32.9773C101.732 32.9962 101.891 33.027 102.037 33.0696V36.0881C101.872 36.0312 101.654 35.9863 101.384 35.9531C101.119 35.92 100.882 35.9034 100.674 35.9034C100.262 35.9034 99.89 35.9957 99.5586 36.1804C99.2319 36.3603 98.9738 36.6136 98.7844 36.9403C98.5998 37.2623 98.5075 37.6411 98.5075 38.0767V44H95.0344ZM106.87 44.1562C106.065 44.1562 105.334 43.9479 104.676 43.5312C104.018 43.1146 103.492 42.4896 103.099 41.6562C102.706 40.8229 102.51 39.7884 102.51 38.5526C102.51 37.2694 102.713 36.2135 103.12 35.3849C103.528 34.5563 104.06 33.9432 104.718 33.5455C105.381 33.1477 106.094 32.9489 106.856 32.9489C107.429 32.9489 107.919 33.0483 108.326 33.2472C108.734 33.4413 109.07 33.6922 109.335 34C109.6 34.3078 109.801 34.6274 109.939 34.9588H110.01V29.4545H113.483V44H110.045V42.2315H109.939C109.792 42.5677 109.583 42.8826 109.314 43.1761C109.044 43.4697 108.705 43.7064 108.298 43.8864C107.895 44.0663 107.42 44.1562 106.87 44.1562ZM108.078 41.4503C108.499 41.4503 108.859 41.3319 109.157 41.0952C109.456 40.8537 109.685 40.5152 109.846 40.0795C110.007 39.6439 110.088 39.1326 110.088 38.5455C110.088 37.9489 110.007 37.4351 109.846 37.0043C109.69 36.5734 109.46 36.242 109.157 36.0099C108.859 35.7779 108.499 35.6619 108.078 35.6619C107.647 35.6619 107.282 35.7803 106.984 36.017C106.686 36.2538 106.458 36.5876 106.302 37.0185C106.151 37.4493 106.075 37.9583 106.075 38.5455C106.075 39.1326 106.153 39.6439 106.309 40.0795C106.466 40.5152 106.69 40.8537 106.984 41.0952C107.282 41.3319 107.647 41.4503 108.078 41.4503ZM118.754 44.1847C118.058 44.1847 117.44 44.0687 116.901 43.8366C116.366 43.5999 115.942 43.2448 115.629 42.7713C115.321 42.2931 115.168 41.6941 115.168 40.9744C115.168 40.3684 115.274 39.857 115.487 39.4403C115.7 39.0237 115.994 38.6851 116.368 38.4247C116.742 38.1643 117.173 37.9678 117.661 37.8352C118.148 37.6979 118.669 37.6056 119.223 37.5582C119.843 37.5014 120.343 37.4422 120.722 37.3807C121.1 37.3144 121.375 37.2221 121.545 37.1037C121.721 36.9806 121.808 36.8078 121.808 36.5852V36.5497C121.808 36.1851 121.683 35.9034 121.432 35.7045C121.181 35.5057 120.842 35.4062 120.416 35.4062C119.957 35.4062 119.588 35.5057 119.308 35.7045C119.029 35.9034 118.851 36.178 118.776 36.5284L115.572 36.4148C115.667 35.7519 115.911 35.16 116.304 34.6392C116.702 34.1136 117.246 33.7017 117.938 33.4034C118.634 33.1004 119.469 32.9489 120.445 32.9489C121.141 32.9489 121.782 33.0317 122.369 33.1974C122.956 33.3584 123.468 33.5952 123.903 33.9077C124.339 34.2154 124.675 34.5942 124.912 35.044C125.153 35.4938 125.274 36.0076 125.274 36.5852V44H122.007V42.4801H121.922C121.728 42.8494 121.479 43.1619 121.176 43.4176C120.878 43.6733 120.525 43.8651 120.118 43.9929C119.715 44.1207 119.261 44.1847 118.754 44.1847ZM119.827 41.9119C120.201 41.9119 120.537 41.8362 120.835 41.6847C121.138 41.5331 121.38 41.3248 121.56 41.0597C121.74 40.7898 121.83 40.4773 121.83 40.1222V39.0852C121.73 39.1373 121.609 39.1847 121.467 39.2273C121.33 39.2699 121.179 39.3101 121.013 39.348C120.847 39.3859 120.677 39.419 120.501 39.4474C120.326 39.4759 120.158 39.5019 119.997 39.5256C119.67 39.5777 119.391 39.6581 119.159 39.767C118.932 39.8759 118.757 40.018 118.634 40.1932C118.515 40.3636 118.456 40.5672 118.456 40.804C118.456 41.1638 118.584 41.4384 118.839 41.6278C119.1 41.8172 119.429 41.9119 119.827 41.9119ZM119.365 31.706L120.8 28.5028H123.875L121.73 31.706H119.365ZM127.398 48.0909V33.0909H130.835V34.9588H130.942C131.084 34.6274 131.285 34.3078 131.545 34C131.811 33.6922 132.147 33.4413 132.554 33.2472C132.966 33.0483 133.458 32.9489 134.031 32.9489C134.789 32.9489 135.497 33.1477 136.155 33.5455C136.818 33.9432 137.353 34.5563 137.76 35.3849C138.167 36.2135 138.371 37.2694 138.371 38.5526C138.371 39.7884 138.174 40.8229 137.781 41.6562C137.393 42.4896 136.867 43.1146 136.205 43.5312C135.546 43.9479 134.815 44.1562 134.01 44.1562C133.461 44.1562 132.985 44.0663 132.582 43.8864C132.18 43.7064 131.841 43.4697 131.567 43.1761C131.297 42.8826 131.089 42.5677 130.942 42.2315H130.871V48.0909H127.398ZM130.8 38.5455C130.8 39.1326 130.878 39.6439 131.034 40.0795C131.195 40.5152 131.425 40.8537 131.723 41.0952C132.026 41.3319 132.388 41.4503 132.81 41.4503C133.236 41.4503 133.598 41.3319 133.896 41.0952C134.195 40.8537 134.42 40.5152 134.571 40.0795C134.727 39.6439 134.805 39.1326 134.805 38.5455C134.805 37.9583 134.727 37.4493 134.571 37.0185C134.42 36.5876 134.195 36.2538 133.896 36.017C133.603 35.7803 133.241 35.6619 132.81 35.6619C132.384 35.6619 132.021 35.7779 131.723 36.0099C131.425 36.242 131.195 36.5734 131.034 37.0043C130.878 37.4351 130.8 37.9489 130.8 38.5455ZM140.191 44V33.0909H143.664V44H140.191ZM141.931 31.8196C141.443 31.8196 141.024 31.6586 140.674 31.3366C140.323 31.0099 140.148 30.617 140.148 30.1577C140.148 29.7031 140.323 29.3149 140.674 28.9929C141.024 28.6662 141.443 28.5028 141.931 28.5028C142.423 28.5028 142.842 28.6662 143.188 28.9929C143.538 29.3149 143.713 29.7031 143.713 30.1577C143.713 30.617 143.538 31.0099 143.188 31.3366C142.842 31.6586 142.423 31.8196 141.931 31.8196ZM150.967 44.206C149.821 44.206 148.836 43.9716 148.012 43.5028C147.193 43.0294 146.561 42.3712 146.116 41.5284C145.675 40.6809 145.455 39.6984 145.455 38.581C145.455 37.4588 145.675 36.4763 146.116 35.6335C146.561 34.786 147.193 34.1278 148.012 33.6591C148.836 33.1856 149.821 32.9489 150.967 32.9489C152.112 32.9489 153.095 33.1856 153.914 33.6591C154.738 34.1278 155.37 34.786 155.81 35.6335C156.255 36.4763 156.478 37.4588 156.478 38.581C156.478 39.6984 156.255 40.6809 155.81 41.5284C155.37 42.3712 154.738 43.0294 153.914 43.5028C153.095 43.9716 152.112 44.206 150.967 44.206ZM150.988 41.5852C151.405 41.5852 151.757 41.4574 152.046 41.2017C152.335 40.946 152.555 40.5909 152.707 40.1364C152.863 39.6818 152.941 39.1562 152.941 38.5597C152.941 37.9536 152.863 37.4233 152.707 36.9688C152.555 36.5142 152.335 36.1591 152.046 35.9034C151.757 35.6477 151.405 35.5199 150.988 35.5199C150.557 35.5199 150.192 35.6477 149.894 35.9034C149.601 36.1591 149.376 36.5142 149.219 36.9688C149.068 37.4233 148.992 37.9536 148.992 38.5597C148.992 39.1562 149.068 39.6818 149.219 40.1364C149.376 40.5909 149.601 40.946 149.894 41.2017C150.192 41.4574 150.557 41.5852 150.988 41.5852Z" fill="white"/>
<rect x="259" width="228" height="67" rx="33.5" fill="black"/>
<path d="M326.101 44V29.4545H336.243V32.3097H329.616V35.2926H335.724V38.1548H329.616V41.1449H336.243V44H326.101ZM341.918 37.7784V44H338.445V33.0909H341.747V35.0938H341.868C342.109 34.4261 342.521 33.9029 343.104 33.5241C343.686 33.1406 344.38 32.9489 345.185 32.9489C345.952 32.9489 346.617 33.1217 347.18 33.4673C347.749 33.8082 348.189 34.2865 348.501 34.902C348.819 35.5128 348.975 36.2277 348.97 37.0469V44H345.497V37.7287C345.502 37.1226 345.348 36.6491 345.036 36.3082C344.728 35.9673 344.299 35.7969 343.75 35.7969C343.385 35.7969 343.063 35.8774 342.784 36.0384C342.509 36.1946 342.296 36.4195 342.145 36.7131C341.998 37.0066 341.922 37.3617 341.918 37.7784ZM355.105 44.1562C354.3 44.1562 353.568 43.9479 352.91 43.5312C352.252 43.1146 351.726 42.4896 351.333 41.6562C350.94 40.8229 350.744 39.7884 350.744 38.5526C350.744 37.2694 350.948 36.2135 351.355 35.3849C351.762 34.5563 352.295 33.9432 352.953 33.5455C353.616 33.1477 354.328 32.9489 355.091 32.9489C355.663 32.9489 356.154 33.0483 356.561 33.2472C356.968 33.4413 357.304 33.6922 357.569 34C357.834 34.3078 358.036 34.6274 358.173 34.9588H358.244V29.4545H361.717V44H358.279V42.2315H358.173C358.026 42.5677 357.818 42.8826 357.548 43.1761C357.278 43.4697 356.94 43.7064 356.532 43.8864C356.13 44.0663 355.654 44.1562 355.105 44.1562ZM356.312 41.4503C356.734 41.4503 357.093 41.3319 357.392 41.0952C357.69 40.8537 357.92 40.5152 358.081 40.0795C358.242 39.6439 358.322 39.1326 358.322 38.5455C358.322 37.9489 358.242 37.4351 358.081 37.0043C357.924 36.5734 357.695 36.242 357.392 36.0099C357.093 35.7779 356.734 35.6619 356.312 35.6619C355.881 35.6619 355.517 35.7803 355.218 36.017C354.92 36.2538 354.693 36.5876 354.537 37.0185C354.385 37.4493 354.309 37.9583 354.309 38.5455C354.309 39.1326 354.387 39.6439 354.544 40.0795C354.7 40.5152 354.925 40.8537 355.218 41.0952C355.517 41.3319 355.881 41.4503 356.312 41.4503ZM369.013 44.206C367.872 44.206 366.887 43.9811 366.058 43.5312C365.234 43.0767 364.6 42.4304 364.155 41.5923C363.714 40.7495 363.494 39.7481 363.494 38.5881C363.494 37.4612 363.717 36.4763 364.162 35.6335C364.607 34.786 365.234 34.1278 366.044 33.6591C366.854 33.1856 367.808 32.9489 368.906 32.9489C369.683 32.9489 370.393 33.0696 371.037 33.3111C371.681 33.5526 372.237 33.91 372.706 34.3835C373.175 34.857 373.539 35.4418 373.8 36.1378C374.06 36.8291 374.19 37.6222 374.19 38.517V39.3835H364.709V37.3665H370.959C370.954 36.9972 370.866 36.6681 370.696 36.3793C370.526 36.0904 370.291 35.8655 369.993 35.7045C369.699 35.5388 369.361 35.456 368.977 35.456C368.589 35.456 368.241 35.5436 367.933 35.7188C367.625 35.8892 367.382 36.1236 367.202 36.4219C367.022 36.7154 366.927 37.0492 366.918 37.4233V39.4759C366.918 39.9209 367.005 40.3116 367.18 40.6477C367.356 40.9792 367.604 41.2372 367.926 41.4219C368.248 41.6065 368.632 41.6989 369.077 41.6989C369.384 41.6989 369.664 41.6562 369.915 41.571C370.166 41.4858 370.381 41.3603 370.561 41.1946C370.741 41.0289 370.876 40.8253 370.966 40.5838L374.155 40.6761C374.022 41.3911 373.731 42.0137 373.281 42.544C372.836 43.0696 372.251 43.4792 371.527 43.7727C370.803 44.0616 369.964 44.206 369.013 44.206ZM375.964 44V33.0909H379.338V35.0795H379.451C379.65 34.3598 379.975 33.8248 380.424 33.4744C380.874 33.1193 381.397 32.9418 381.994 32.9418C382.155 32.9418 382.321 32.9536 382.491 32.9773C382.662 32.9962 382.82 33.027 382.967 33.0696V36.0881C382.801 36.0312 382.583 35.9863 382.314 35.9531C382.048 35.92 381.812 35.9034 381.603 35.9034C381.191 35.9034 380.82 35.9957 380.488 36.1804C380.162 36.3603 379.904 36.6136 379.714 36.9403C379.529 37.2623 379.437 37.6411 379.437 38.0767V44H375.964ZM388.915 44.206C387.774 44.206 386.789 43.9811 385.961 43.5312C385.137 43.0767 384.502 42.4304 384.057 41.5923C383.617 40.7495 383.397 39.7481 383.397 38.5881C383.397 37.4612 383.619 36.4763 384.064 35.6335C384.509 34.786 385.137 34.1278 385.946 33.6591C386.756 33.1856 387.71 32.9489 388.809 32.9489C389.585 32.9489 390.295 33.0696 390.939 33.3111C391.583 33.5526 392.14 33.91 392.608 34.3835C393.077 34.857 393.442 35.4418 393.702 36.1378C393.962 36.8291 394.093 37.6222 394.093 38.517V39.3835H384.611V37.3665H390.861C390.856 36.9972 390.769 36.6681 390.598 36.3793C390.428 36.0904 390.194 35.8655 389.895 35.7045C389.602 35.5388 389.263 35.456 388.88 35.456C388.491 35.456 388.143 35.5436 387.836 35.7188C387.528 35.8892 387.284 36.1236 387.104 36.4219C386.924 36.7154 386.829 37.0492 386.82 37.4233V39.4759C386.82 39.9209 386.908 40.3116 387.083 40.6477C387.258 40.9792 387.507 41.2372 387.828 41.4219C388.15 41.6065 388.534 41.6989 388.979 41.6989C389.287 41.6989 389.566 41.6562 389.817 41.571C390.068 41.4858 390.283 41.3603 390.463 41.1946C390.643 41.0289 390.778 40.8253 390.868 40.5838L394.057 40.6761C393.925 41.3911 393.633 42.0137 393.184 42.544C392.739 43.0696 392.154 43.4792 391.429 43.7727C390.705 44.0616 389.867 44.206 388.915 44.206ZM400.959 44.206C399.808 44.206 398.821 43.9692 397.997 43.4957C397.178 43.0223 396.548 42.3641 396.108 41.5213C395.668 40.6738 395.447 39.6937 395.447 38.581C395.447 37.4635 395.668 36.4834 396.108 35.6406C396.553 34.7931 397.185 34.1326 398.004 33.6591C398.828 33.1856 399.811 32.9489 400.952 32.9489C401.96 32.9489 402.839 33.1312 403.587 33.4957C404.339 33.8603 404.927 34.3764 405.348 35.044C405.774 35.7069 405.999 36.4858 406.023 37.3807H402.777C402.711 36.822 402.521 36.384 402.209 36.0668C401.901 35.7495 401.499 35.5909 401.001 35.5909C400.599 35.5909 400.246 35.7045 399.943 35.9318C399.64 36.1544 399.403 36.4858 399.233 36.9261C399.067 37.3617 398.984 37.9015 398.984 38.5455C398.984 39.1894 399.067 39.7339 399.233 40.179C399.403 40.6193 399.64 40.9531 399.943 41.1804C400.246 41.4029 400.599 41.5142 401.001 41.5142C401.323 41.5142 401.607 41.4455 401.854 41.3082C402.105 41.1709 402.311 40.9697 402.472 40.7045C402.633 40.4347 402.734 40.108 402.777 39.7244H406.023C405.99 40.6241 405.765 41.41 405.348 42.0824C404.936 42.7547 404.356 43.2779 403.608 43.652C402.865 44.0213 401.982 44.206 400.959 44.206ZM400.277 43.9432H401.669L401.555 44.5824C402.076 44.6581 402.493 44.8452 402.805 45.1435C403.118 45.4465 403.277 45.8395 403.281 46.3224C403.286 47.0611 402.933 47.6435 402.223 48.0696C401.518 48.5005 400.535 48.7159 399.276 48.7159L399.261 47.2884C399.91 47.2884 400.412 47.215 400.767 47.0682C401.122 46.9214 401.307 46.6989 401.321 46.4006C401.335 46.1259 401.229 45.9058 401.001 45.7401C400.774 45.5791 400.421 45.4678 399.943 45.4062L400.277 43.9432ZM412.892 44.206C411.747 44.206 410.762 43.9716 409.938 43.5028C409.119 43.0294 408.487 42.3712 408.042 41.5284C407.601 40.6809 407.381 39.6984 407.381 38.581C407.381 37.4588 407.601 36.4763 408.042 35.6335C408.487 34.786 409.119 34.1278 409.938 33.6591C410.762 33.1856 411.747 32.9489 412.892 32.9489C414.038 32.9489 415.021 33.1856 415.84 33.6591C416.664 34.1278 417.296 34.786 417.736 35.6335C418.181 36.4763 418.404 37.4588 418.404 38.581C418.404 39.6984 418.181 40.6809 417.736 41.5284C417.296 42.3712 416.664 43.0294 415.84 43.5028C415.021 43.9716 414.038 44.206 412.892 44.206ZM412.914 41.5852C413.33 41.5852 413.683 41.4574 413.972 41.2017C414.261 40.946 414.481 40.5909 414.632 40.1364C414.789 39.6818 414.867 39.1562 414.867 38.5597C414.867 37.9536 414.789 37.4233 414.632 36.9688C414.481 36.5142 414.261 36.1591 413.972 35.9034C413.683 35.6477 413.33 35.5199 412.914 35.5199C412.483 35.5199 412.118 35.6477 411.82 35.9034C411.526 36.1591 411.301 36.5142 411.145 36.9688C410.994 37.4233 410.918 37.9536 410.918 38.5597C410.918 39.1562 410.994 39.6818 411.145 40.1364C411.301 40.5909 411.526 40.946 411.82 41.2017C412.118 41.4574 412.483 41.5852 412.914 41.5852Z" fill="#EA2626"/>
</svg>
